<svg xmlns="http://www.w3.org/2000/svg" style="display: none;">
  <symbol id="icon-home" viewBox="0 0 50 50">
    <path fill-rule="evenodd" clip-rule="evenodd" d="M25 0c-.471 0-.944.063-1.4.187-.424.115-.991.384-1.67.86-.703.496-1.438 1.108-2.566 2.04L4.392 15.46c-1.845 1.524-2.524 2.085-3.08 2.863a7.067 7.067 0 0 0-1.055 2.184C0 21.411 0 22.26 0 24.554v10.173c0 2.513-.003 4.285.106 5.769.107 1.462.323 2.49.709 3.356 1.087 2.44 3.173 4.38 5.798 5.39.932.36 2.037.56 3.61.66 1.597.1 3.503.098 6.206.098H33.57c2.703 0 4.61.003 6.206-.099 1.573-.1 2.678-.3 3.61-.658 2.625-1.01 4.711-2.95 5.798-5.39.386-.867.602-1.895.709-3.357.109-1.484.106-3.256.106-5.769V24.554c0-2.295 0-3.143-.257-4.047a7.065 7.065 0 0 0-1.054-2.184c-.557-.778-1.236-1.339-3.08-2.863L30.635 3.087c-1.128-.932-1.863-1.544-2.567-2.04-.678-.476-1.245-.745-1.668-.86A5.374 5.374 0 0 0 25 0zm0 3.984c.067 0 .135.008.2.026-.123-.033-.165-.1.28.213.477.336 1.185.912 2.31 1.842l14.972 12.372c1.826 1.51 2.188 1.863 2.355 2.096.216.303.38.64.48.991.077.271.117.759.117 3.03v10.173c0 2.51-.002 4.243-.095 5.5-.09 1.23-.248 1.77-.396 2.1-.653 1.465-1.9 2.626-3.476 3.232-.356.137-.937.285-2.26.369-1.352.085-3.215.088-5.916.088H16.43c-2.701 0-4.564-.003-5.916-.088-1.323-.084-1.904-.232-2.26-.369-1.575-.606-2.823-1.767-3.476-3.232-.147-.33-.306-.87-.396-2.1-.093-1.257-.095-2.989-.095-5.5V24.554c0-2.271.04-2.758.117-3.03.1-.351.264-.687.48-.99.167-.234.53-.588 2.355-2.097L22.21 6.065c1.125-.93 1.833-1.506 2.31-1.842.445-.313.403-.246.28-.213a.772.772 0 0 1 .2-.026z" fill="currentColor"/>
  </symbol>
  <symbol id="icon-wallet" viewBox="0 0 50 50">
    <path fill-rule="evenodd" clip-rule="evenodd" d="M8.978 4.578A8.978 8.978 0 0 0 0 13.555v22.89a8.978 8.978 0 0 0 8.978 8.977h32.044A8.978 8.978 0 0 0 50 36.445v-22.89a8.978 8.978 0 0 0-8.978-8.977H8.978zm-4.756 8.977A4.756 4.756 0 0 1 8.978 8.8h32.044a4.756 4.756 0 0 1 4.756 4.755v2.467h-7.045a8.978 8.978 0 1 0 0 17.956h7.045v2.466a4.756 4.756 0 0 1-4.756 4.756H8.978a4.756 4.756 0 0 1-4.756-4.756V13.555zm41.556 16.2v-9.51h-7.045a4.756 4.756 0 0 0 0 9.51h7.045z" fill="currentColor"/>
  </symbol>
  <symbol id="icon-exchange" viewBox="0 0 50 50">
    <path d="M20.464 0a2.31 2.31 0 1 0 0 4.62H33.04L9.751 27.904a2.31 2.31 0 0 0 .75 3.772 2.312 2.312 0 0 0 2.52-.502l27.23-27.229A2.31 2.31 0 0 0 38.617 0H20.464zM38.614 18.15c-.613 0-1.2.243-1.633.677L9.75 46.056A2.31 2.31 0 0 0 11.385 50h18.153a2.31 2.31 0 1 0 0-4.62H16.965l23.283-23.283a2.31 2.31 0 0 0-1.634-3.947z" fill="currentColor"/>
  </symbol>
  <symbol id="icon-stake" viewBox="0 0 50 50">
    <path d="M24.485 0a9.471 9.471 0 0 0-3.872.825l-14.4 6.39c-2.482 1.096-4.42 2.89-4.42 5.354 0 2.465 1.938 4.259 4.42 5.355l14.4 6.39a9.518 9.518 0 0 0 7.749 0l14.395-6.39c2.484-1.096 4.425-2.889 4.425-5.355 0-2.465-1.938-4.258-4.42-5.355h-.005L28.362.824A9.493 9.493 0 0 0 24.485 0zm.003 4.56c.836 0 1.672.092 2.08.275h.006l14.405 6.4h.005c1.666.734 1.802 1.37 1.802 1.334 0-.037-.136.6-1.802 1.335h-.005l-14.405 6.4h-.005c-.817.365-3.346.365-4.163 0h-.005l-14.405-6.4h-.005C6.325 13.17 6.19 12.532 6.19 12.57c0 .037.136-.6 1.802-1.335h.005l14.405-6.399h.005c.409-.183 1.245-.274 2.082-.274zM3.027 20.357a2.196 2.196 0 0 0-2.199 2.198 7.913 7.913 0 0 0 4.726 7.257l16.574 7.372h.005a7.046 7.046 0 0 0 5.746-.005l16.56-7.367a7.912 7.912 0 0 0 4.73-7.257 2.194 2.194 0 0 0-2.198-2.198 2.196 2.196 0 0 0-2.198 2.198c0 .952-1.235 2.853-2.108 3.238l-.004.005-16.58 7.371-.01.005a2.65 2.65 0 0 1-2.154-.005h-.005L7.338 25.797a.201.201 0 0 0-.005-.005c-.872-.386-2.107-2.286-2.107-3.238a2.197 2.197 0 0 0-2.198-2.198zm0 12.207A2.196 2.196 0 0 0 .829 34.76c0 3.137 1.867 5.976 4.721 7.252l.005.005 16.574 7.372h.005a7.046 7.046 0 0 0 5.746-.005l16.565-7.367.005-.005c2.854-1.276 4.72-4.115 4.72-7.252a2.197 2.197 0 0 0-3.752-1.555 2.2 2.2 0 0 0-.644 1.555 3.542 3.542 0 0 1-2.117 3.242l-16.574 7.372-.01.005a2.65 2.65 0 0 1-2.155-.005h-.005l-16.57-7.372a3.542 3.542 0 0 1-2.117-3.242 2.197 2.197 0 0 0-2.198-2.198z" fill="currentColor"/>
  </symbol>
  <symbol id="icon-friends" viewBox="0 0 50 50">
    <path d="M15.76 1.027C9.328 1.027 4.106 6.25 4.106 12.68S9.328 24.334 15.76 24.334c6.432 0 11.654-5.224 11.654-11.653 0-6.43-5.222-11.654-11.654-11.654zm0 3.801a7.855 7.855 0 0 1 7.852 7.853 7.855 7.855 0 0 1-7.852 7.852 7.854 7.854 0 0 1-7.852-7.853 7.854 7.854 0 0 1 7.852-7.852zm22.586.305c-5.296 0-9.6 4.304-9.6 9.6 0 5.297 4.304 9.601 9.6 9.601 5.297 0 9.6-4.304 9.6-9.6 0-5.297-4.303-9.6-9.6-9.6zm0 3.802a5.8 5.8 0 0 1 5.799 5.799 5.8 5.8 0 0 1-5.799 5.799 5.8 5.8 0 0 1-5.799-5.8 5.8 5.8 0 0 1 5.8-5.798zM4.46 27.719l-.316.012h-.008A4.475 4.475 0 0 0 0 32.186v5.138l.012.517v.004c.175 4.233 2.508 7.06 5.582 8.77 3.074 1.712 6.886 2.358 10.166 2.358 3.347 0 7.246-.67 10.35-2.462 3.106-1.791 5.41-4.757 5.41-9.191v-5.138l-.011-.32v-.008a4.47 4.47 0 0 0-4.456-4.131L4.46 27.719zm41.082 0-14.702.004.766.91c.582.741.988 1.619 1.15 2.587l.049.3h12.712l.137.009c.309.056.545.327.545.658v4.102l-.012.461c-.156 2.828-1.707 4.348-3.525 5.237-1.818.89-3.897 1.092-4.933 1.127l-.577.005c-.87-.014-2.953-.15-4.844-.979l-.33-.144-.144.325a10.619 10.619 0 0 1-1.583 2.518l-.297.353.417.2c2.217 1.077 4.729 1.528 6.95 1.528 2.696 0 5.836-.647 8.337-2.302 2.5-1.655 4.342-4.356 4.343-8.325V32.18l-.016-.333v-.008a4.472 4.472 0 0 0-4.119-4.107h-.008l-.316-.012zM4.467 31.521h22.57l.137.012a.67.67 0 0 1 .545.657v5.122l-.012.465c-.177 3.143-2.119 4.906-4.464 5.963-2.345 1.057-5.068 1.343-6.605 1.411l-.878.02-.69-.008h-.004c-2.976-.094-5.786-.804-7.76-1.944-2.396-1.381-3.504-3.255-3.504-5.9v-5.117l.012-.152v-.004a.677.677 0 0 1 .517-.514l.136-.011z" fill="currentColor"/>
  </symbol>
  <symbol id="icon-history" viewBox="0 0 50 50">
    <path fill-rule="evenodd" clip-rule="evenodd" d="M7.253 7.228c9.732-9.718 25.551-9.615 35.342.177 9.796 9.795 9.895 25.624.165 35.355-9.731 9.73-25.56 9.63-35.356-.165A25.159 25.159 0 0 1 .232 21.362a1.923 1.923 0 1 1 3.81.522 21.313 21.313 0 0 0 6.082 17.992c8.32 8.32 21.713 8.367 29.916.164 8.203-8.203 8.155-21.597-.164-29.916-8.315-8.315-21.7-8.367-29.903-.176l1.917.01a1.923 1.923 0 1 1-.02 3.845l-6.527-.032a1.923 1.923 0 0 1-1.913-1.914L3.397 5.33a1.923 1.923 0 1 1 3.846-.02l.01 1.918zM25 12.82c1.062 0 1.923.861 1.923 1.923v9.46l5.847 5.847a1.923 1.923 0 1 1-2.72 2.72l-6.973-6.974V14.743c0-1.062.86-1.923 1.923-1.923z" fill="currentColor"/>
  </symbol>
  <symbol id="icon-settings" viewBox="0 0 50 50">
    <path d="M25 15.91a9.09 9.09 0 1 0 0 18.18 9.09 9.09 0 0 0 0-18.18zM20.455 25a4.546 4.546 0 1 1 9.09 0 4.546 4.546 0 0 1-9.09 0z" fill="currentColor"/><path d="M22.198.039c.512-.04 1.087-.04 1.556-.039h2.492c.469 0 1.044 0 1.556.039.605.046 1.443.164 2.342.573a6.818 6.818 0 0 1 2.812 2.369c.556.816.815 1.622.964 2.21.125.498.223 1.065.302 1.527l.322 1.865.006.003.236.133.006.003 2.13-.77c.432-.157.963-.35 1.45-.485.576-.16 1.39-.333 2.359-.262 1.227.09 2.406.51 3.413 1.217.796.557 1.317 1.206 1.662 1.695.291.413.581.898.817 1.293l1.14 1.908c.25.417.554.925.789 1.399.276.556.614 1.362.715 2.375a6.82 6.82 0 0 1-.675 3.712c-.453.913-1.053 1.548-1.508 1.971-.387.36-.85.729-1.23 1.03L44.317 25l1.535 1.194c.38.302.844.67 1.23 1.03.456.424 1.056 1.06 1.508 1.972.57 1.149.805 2.435.676 3.712-.102 1.013-.44 1.819-.716 2.376-.234.473-.538.981-.788 1.398l-1.14 1.909c-.236.394-.526.879-.817 1.292-.345.489-.866 1.138-1.662 1.695a6.817 6.817 0 0 1-3.413 1.217c-.969.071-1.783-.101-2.36-.262a20.915 20.915 0 0 1-1.45-.484l-2.129-.771-.006.003c-.078.045-.157.09-.236.133l-.006.003-.322 1.865c-.08.462-.177 1.029-.302 1.526-.15.589-.408 1.395-.964 2.212a6.817 6.817 0 0 1-2.812 2.368c-.899.409-1.737.527-2.342.573-.512.04-1.087.04-1.556.039h-2.492c-.469 0-1.044 0-1.556-.039-.605-.046-1.443-.164-2.342-.573a6.817 6.817 0 0 1-2.812-2.368c-.556-.817-.815-1.623-.963-2.212-.126-.497-.224-1.064-.303-1.526l-.322-1.864-.006-.004-.236-.133-.006-.003-2.13.77c-.431.157-.963.35-1.45.485-.576.16-1.39.333-2.359.262a6.818 6.818 0 0 1-3.413-1.217c-.796-.557-1.317-1.206-1.662-1.695a20.81 20.81 0 0 1-.816-1.293l-1.141-1.908c-.25-.417-.554-.925-.788-1.398-.277-.557-.614-1.363-.716-2.376a6.818 6.818 0 0 1 .676-3.712c.452-.913 1.052-1.548 1.507-1.971.387-.36.85-.729 1.23-1.03l1.487-1.183v-.024l-1.486-1.182c-.38-.302-.845-.67-1.231-1.03-.455-.424-1.055-1.06-1.508-1.972a6.818 6.818 0 0 1-.675-3.711c.101-1.014.44-1.82.715-2.377.235-.473.54-.98.789-1.398l1.14-1.908c.236-.395.526-.88.817-1.293.345-.489.866-1.138 1.662-1.695a6.818 6.818 0 0 1 3.413-1.217c.969-.071 1.783.101 2.36.262.486.136 1.018.328 1.45.485l2.129.77.005-.003c.079-.045.158-.09.237-.133l.006-.003.322-1.865c.08-.462.177-1.029.303-1.526.148-.589.407-1.395.963-2.211A6.818 6.818 0 0 1 19.856.612c.899-.409 1.737-.527 2.342-.573zm7.56 7.543c-.188-1.09-.282-1.636-.559-2.043a2.273 2.273 0 0 0-.937-.79c-.449-.204-1.002-.204-2.109-.204h-2.306c-1.107 0-1.66 0-2.109.205a2.273 2.273 0 0 0-.937.789c-.277.407-.371.953-.56 2.043l-.354 2.056c-.127.733-.19 1.1-.324 1.382-.132.277-.24.428-.458.643-.222.219-.633.446-1.456.901l-.181.102c-.787.45-1.18.674-1.473.75a1.97 1.97 0 0 1-.761.066c-.301-.025-.638-.147-1.312-.391l-2.304-.834c-1.02-.37-1.531-.554-2.015-.519-.41.03-.802.17-1.138.406-.397.278-.676.745-1.233 1.676l-1.044 1.747c-.588.984-.882 1.476-.933 1.98-.043.426.036.854.226 1.238.225.453.673.81 1.57 1.523l1.648 1.31c.572.456.858.683 1.038.927.194.264.276.435.362.751.08.293.08.763.08 1.704 0 .94 0 1.411-.08 1.704a1.951 1.951 0 0 1-.362.75c-.18.245-.466.472-1.038.928l-1.648 1.31c-.897.713-1.345 1.07-1.57 1.524-.19.383-.268.812-.226 1.237.051.504.345.996.933 1.98l1.044 1.746c.557.933.836 1.399 1.233 1.677.336.236.729.376 1.138.406.484.035.994-.15 2.015-.519l2.304-.834c.674-.244 1.011-.366 1.312-.39.295-.025.474-.01.761.065.292.076.686.3 1.473.75.06.034.12.069.181.102.823.455 1.234.682 1.456.901.219.215.326.367.458.643.134.282.197.649.324 1.382l.354 2.055c.189 1.091.283 1.637.56 2.044.234.344.558.617.937.79.449.204 1.002.204 2.11.204h2.305c1.107 0 1.66 0 2.109-.205.379-.172.703-.445.937-.789.277-.407.371-.953.56-2.044l.354-2.055c.127-.733.19-1.1.324-1.382.132-.276.24-.428.458-.643.222-.219.633-.446 1.456-.901l.181-.102c.787-.45 1.18-.674 1.473-.75.287-.075.465-.09.761-.066.301.025.638.147 1.312.392l2.304.833c1.02.37 1.531.554 2.015.519.41-.03.802-.17 1.138-.406.397-.278.676-.744 1.233-1.677l1.044-1.746c.588-.984.882-1.476.933-1.98a2.273 2.273 0 0 0-.226-1.237c-.225-.454-.673-.81-1.57-1.524l-1.648-1.31c-.572-.456-.858-.683-1.038-.927a1.956 1.956 0 0 1-.362-.751c-.08-.292-.08-.763-.08-1.704 0-.94 0-1.411.08-1.704.086-.316.169-.487.362-.75.18-.245.466-.472 1.038-.927l1.648-1.31c.897-.714 1.346-1.07 1.57-1.524.19-.384.269-.812.226-1.238-.05-.504-.345-.996-.933-1.98l-1.044-1.747c-.557-.931-.836-1.398-1.233-1.676a2.274 2.274 0 0 0-1.138-.406c-.484-.035-.994.15-2.015.519l-2.304.834c-.674.244-1.01.366-1.312.39-.295.025-.474.01-.761-.065-.293-.076-.686-.3-1.473-.75l-.18-.102c-.824-.455-1.235-.682-1.457-.901a1.973 1.973 0 0 1-.458-.643c-.134-.282-.197-.649-.324-1.382l-.354-2.056z" fill="currentColor"/>
  </symbol>
  <symbol id="icon-search" viewBox="0 0 50 50">
    <path fill-rule="evenodd" clip-rule="evenodd" d="M22.222 5.556c-9.205 0-16.666 7.462-16.666 16.666 0 9.205 7.462 16.667 16.666 16.667 9.205 0 16.667-7.462 16.667-16.667 0-9.205-7.462-16.666-16.667-16.666zM0 22.222C0 9.95 9.95 0 22.222 0c12.273 0 22.222 9.95 22.222 22.222 0 5.136-1.741 9.864-4.666 13.627l9.409 9.41a2.778 2.778 0 0 1-3.929 3.928l-9.41-9.41a22.126 22.126 0 0 1-13.626 4.667C9.95 44.444 0 34.495 0 22.222z" fill="currentColor"/>
  </symbol>
  <symbol id="icon-send" viewBox="0 0 50 50">
    <path fill="currentColor" d="M18.75 2.604c-5.417 0-9.55 1.09-12.303 3.843S2.604 13.333 2.604 18.75v12.5c0 5.417 1.09 9.55 3.843 12.303s6.886 3.843 12.303 3.843h12.5c5.417 0 9.55-1.09 12.303-3.843s3.843-6.886 3.843-12.303v-12.5c0-5.417-1.09-9.55-3.843-12.303S36.667 2.604 31.25 2.604zm0 3.125h12.5c5 0 8.16.993 10.094 2.927 1.934 1.935 2.927 5.094 2.927 10.094v12.5c0 5-.993 8.16-2.927 10.094-1.935 1.934-5.094 2.927-10.094 2.927h-12.5c-5 0-8.16-.993-10.094-2.927C6.722 39.409 5.73 36.25 5.73 31.25v-12.5c0-5 .993-8.16 2.927-10.094C10.591 6.722 13.75 5.73 18.75 5.73zm6.25 6.23a1.563 1.563 0 0 0-1.105.457l-6.25 6.25a1.563 1.563 0 0 0 0 2.209 1.563 1.563 0 0 0 2.21 0l3.582-3.582v12.895A1.563 1.563 0 0 0 25 31.75a1.563 1.563 0 0 0 1.563-1.563V17.294l3.582 3.582a1.563 1.563 0 0 0 2.21 0 1.563 1.563 0 0 0 0-2.209l-6.25-6.25A1.563 1.563 0 0 0 25 11.959zM12.996 32.914a1.563 1.563 0 0 0-1.978.986 1.563 1.563 0 0 0 .986 1.977 41.042 41.042 0 0 0 25.992 0 1.563 1.563 0 0 0 .986-1.977 1.563 1.563 0 0 0-1.978-.986 37.913 37.913 0 0 1-24.008 0z"/>
  </symbol>
  <symbol id="icon-qrcode" viewBox="0 0 50 50">
    <path fill="currentColor" d="M10.938.416c-2.621 0-4.155-.078-5.764.588a7.706 7.706 0 0 0-4.17 4.17C.338 6.783.416 8.317.416 10.937c0 2.621-.079 4.155.588 5.764a7.706 7.706 0 0 0 4.17 4.17c1.609.667 3.143.588 5.763.588 2.621 0 4.155.079 5.764-.588a7.71 7.71 0 0 0 4.17-4.172c.667-1.609.588-3.14.588-5.762 0-2.62.079-4.154-.588-5.763a7.706 7.706 0 0 0-4.17-4.17c-1.61-.667-3.143-.588-5.764-.588zm28.124 0c-2.62 0-4.154-.079-5.763.588a7.706 7.706 0 0 0-4.17 4.17c-.666 1.609-.588 3.143-.588 5.764 0 2.62-.079 4.154.588 5.763a7.706 7.706 0 0 0 4.17 4.17c1.609.667 3.143.588 5.764.588 2.62 0 4.154.079 5.763-.588a7.71 7.71 0 0 0 4.17-4.172c.666-1.609.588-3.14.588-5.762 0-2.62.078-4.154-.588-5.763a7.706 7.706 0 0 0-4.17-4.17c-1.61-.667-3.143-.588-5.764-.588zM10.939 4.584c2.62 0 3.71.08 4.167.27a3.535 3.535 0 0 1 1.916 1.916c.19.458.27 1.547.27 4.168 0 2.62-.08 3.709-.27 4.167a3.535 3.535 0 0 1-1.916 1.916c-.457.19-1.547.27-4.167.27-2.621 0-3.71-.08-4.168-.27a3.535 3.535 0 0 1-1.916-1.916c-.19-.457-.27-1.547-.27-4.168 0-2.62.08-3.709.27-4.167A3.535 3.535 0 0 1 6.77 4.854c.458-.19 1.547-.27 4.168-.27zm28.124 0c2.621 0 3.71.08 4.168.27a3.534 3.534 0 0 1 1.916 1.916c.19.458.27 1.547.27 4.168 0 2.62-.08 3.709-.27 4.167a3.535 3.535 0 0 1-1.916 1.916c-.457.19-1.547.27-4.167.27-2.621 0-3.71-.08-4.168-.27a3.534 3.534 0 0 1-1.916-1.916c-.19-.458-.27-1.547-.27-4.168 0-2.62.08-3.709.27-4.167a3.535 3.535 0 0 1 1.916-1.916c.458-.19 1.547-.27 4.167-.27zM10.939 28.541c-2.621 0-4.155-.078-5.764.588a7.706 7.706 0 0 0-4.17 4.17c-.667 1.609-.588 3.143-.588 5.764 0 2.62-.079 4.154.588 5.763a7.706 7.706 0 0 0 4.17 4.17c1.609.666 3.143.588 5.763.588 2.621 0 4.155.078 5.764-.588a7.71 7.71 0 0 0 4.17-4.172c.666-1.609.588-3.14.588-5.761 0-2.622.079-4.155-.588-5.764a7.706 7.706 0 0 0-4.17-4.17c-1.61-.667-3.143-.588-5.764-.588zm19.687 0a2.083 2.083 0 0 0-2.084 2.084 2.083 2.083 0 0 0 2.084 2.084h5.625a2.083 2.083 0 0 0 2.084-2.084 2.083 2.083 0 0 0-2.084-2.084zm14.063 0a2.083 2.083 0 0 0-2.084 2.084 2.083 2.083 0 0 0 2.084 2.084h.728v4.27h-6.353a2.083 2.083 0 0 0-2.084 2.084 2.083 2.083 0 0 0 2.084 2.083H47.5a2.084 2.084 0 0 0 2.084-2.084v-8.437a2.084 2.084 0 0 0-2.084-2.084zm-33.75 4.168c2.62 0 3.71.08 4.167.27a3.534 3.534 0 0 1 1.916 1.916c.19.458.27 1.546.27 4.167 0 2.622-.08 3.71-.27 4.168a3.536 3.536 0 0 1-1.916 1.916c-.458.19-1.547.27-4.167.27-2.621 0-3.71-.08-4.168-.27a3.534 3.534 0 0 1-1.916-1.916c-.19-.457-.27-1.547-.27-4.167 0-2.621.08-3.71.27-4.168a3.535 3.535 0 0 1 1.916-1.916c.458-.19 1.547-.27 4.168-.27zm19.687 4.27a2.083 2.083 0 0 0-2.084 2.084V47.5a2.084 2.084 0 0 0 2.084 2.084h5.625a2.083 2.083 0 0 0 2.084-2.084 2.083 2.083 0 0 0-2.084-2.084h-3.541v-6.353a2.083 2.083 0 0 0-2.084-2.084zm14.063 8.437a2.083 2.083 0 0 0-2.084 2.084 2.083 2.083 0 0 0 2.084 2.084H47.5a2.083 2.083 0 0 0 2.084-2.084 2.083 2.083 0 0 0-2.084-2.084z" />
  </symbol>
  <symbol id="icon-receive" viewBox="0 0 50 50">
    <path fill="currentColor" d="M18.75 2.44c-5.439 0-9.624 1.094-12.42 3.89-2.796 2.796-3.89 6.981-3.89 12.42v12.5c0 5.439 1.094 9.624 3.89 12.42 2.796 2.796 6.981 3.89 12.42 3.89h12.5c5.439 0 9.624-1.094 12.42-3.89 2.796-2.796 3.89-6.981 3.89-12.42v-12.5c0-5.439-1.094-9.624-3.89-12.42-2.796-2.796-6.981-3.89-12.42-3.89zm0 3.45h12.5c4.979 0 8.088.987 9.98 2.88 1.893 1.892 2.88 5.001 2.88 9.98v12.5c0 4.979-.987 8.088-2.88 9.98-1.892 1.893-5.001 2.88-9.98 2.88h-12.5c-4.979 0-8.088-.987-9.98-2.88-1.893-1.892-2.88-5.001-2.88-9.98v-12.5c0-4.979.987-8.088 2.88-9.98 1.892-1.893 5.001-2.88 9.98-2.88zM25 11.827a1.725 1.725 0 0 0-1.725 1.727v12.515l-3.31-3.31a1.725 1.725 0 0 0-2.44 0 1.725 1.725 0 0 0 0 2.44l6.254 6.255A1.725 1.725 0 0 0 25 31.96a1.725 1.725 0 0 0 1.22-.506l6.255-6.256a1.725 1.725 0 0 0 0-2.44 1.725 1.725 0 0 0-2.44 0l-3.31 3.311V13.553A1.725 1.725 0 0 0 25 11.826zM13.035 32.768a1.725 1.725 0 0 0-2.181 1.09 1.725 1.725 0 0 0 1.087 2.183 41.236 41.236 0 0 0 26.118 0 1.725 1.725 0 0 0 1.087-2.184 1.725 1.725 0 0 0-2.181-1.09 37.792 37.792 0 0 1-23.93 0z"/>
  </symbol>
  <symbol id="icon-loader" viewBox="0 0 50 50">
    <path fill="currentColor" opacity=".2" d="M25 4.688a20.312 20.312 0 1 0 0 40.624 20.312 20.312 0 0 0 0-40.624zM0 25a25 25 0 1 1 50 0 25 25 0 0 1-50 0z"/><path fill="currentColor" d="M22.656 2.344A2.344 2.344 0 0 1 25 0a25 25 0 0 1 25 25 2.344 2.344 0 1 1-4.688 0A20.313 20.313 0 0 0 25 4.687a2.344 2.344 0 0 1-2.344-2.343z"/>
  </symbol>
  <symbol id="icon-close" viewBox="0 0 50 50">
    <path d="M1.398 1.398a4.774 4.774 0 0 1 6.75 0l16.88 16.88L41.91 1.398a4.774 4.774 0 0 1 6.75 6.75l-16.88 16.88L48.66 41.91a4.774 4.774 0 0 1-6.75 6.75L25.029 31.78 8.149 48.66a4.774 4.774 0 0 1-6.751-6.75l16.88-16.881-16.88-16.88a4.774 4.774 0 0 1 0-6.751z" fill="currentColor" />
  </symbol>
</svg>